<svg width="289" height="36" viewBox="0 0 289 36" fill="none" xmlns="http://www.w3.org/2000/svg">
<path d="M73.018 24C66.6163 24 65.2312 17.2174 63.9466 14.5867L58 0H289V14.3783C289 20.9684 284.708 23.3648 278.271 23.3648C218.802 23.3648 82.1753 24 73.018 24Z" fill="white"/>
<path d="M87.4297 9.68652V8.10938H82.6836V16.0098H84.2656V12.8506H86.9805V11.2734H84.2656V9.68652H87.4297ZM93.6201 16H95.334L91.5693 7.93359H91.5205L87.7607 16H89.4697L89.9727 14.9014H93.1221L93.6201 16ZM90.5879 13.5537L91.5498 11.4492L92.5068 13.5537H90.5879ZM104.239 12.0742C104.239 9.81348 102.394 7.96777 100.143 7.96777C97.8916 7.96777 96.0508 9.81348 96.0508 12.0742C96.0508 14.3154 97.8916 16.1514 100.138 16.1514C100.812 16.1514 101.446 15.9902 102.008 15.6973C102.525 16.0537 103.165 16.3174 104.024 16.3711L104.151 14.8281C103.824 14.8086 103.541 14.7549 103.287 14.6816C103.883 13.9736 104.239 13.0605 104.239 12.0742ZM97.6475 12.0645C97.6475 10.6875 98.7656 9.56445 100.138 9.56445C101.515 9.56445 102.638 10.6875 102.638 12.0645C102.638 12.748 102.354 13.373 101.9 13.8223C101.134 13.0801 100.582 12.1914 99.0732 12.0791L98.9902 13.4365C99.6982 13.4854 100.182 13.9443 100.694 14.4863C100.519 14.5303 100.328 14.5498 100.138 14.5498C98.7656 14.5498 97.6475 13.4316 97.6475 12.0645Z" fill="black"/>
<path d="M57.1476 27.2247C59.2416 31.6545 62.2535 36 65 36H12.5C4.60714 36 0 31 0 21.5V0H46.2416C49.0045 7.22917 55.0537 22.7949 57.1476 27.2247Z" fill="#FF4500"/>
<path fill-rule="evenodd" clip-rule="evenodd" d="M36.5356 24.7679L36.5255 29L32.9665 25.0921H25.4331C23.1922 25.0921 21.3752 23.3288 21.3752 21.1536V16.5715C21.3752 14.397 23.1916 12.6336 25.4331 12.6336H34.9288C37.1697 12.6336 38.9867 14.397 38.9867 16.5715V21.1536C38.9867 22.7747 37.9762 24.1636 36.5356 24.7679ZM20.0672 16.5599V19.8414L17.0394 23.1247L17.0337 19.5668C15.8381 19.0612 15 17.9065 15 16.5599V13.2815C15 11.4685 16.5133 10 18.3821 10H26.4152C27.516 10 28.4848 10.5185 29.1019 11.3085H25.4779C22.4893 11.3085 20.0672 13.659 20.0672 16.5599Z" fill="black"/>
</svg>
