<?xml version="1.0" standalone="no"?>
<!DOCTYPE svg PUBLIC "-//W3C//DTD SVG 20010904//EN"
 "http://www.w3.org/TR/2001/REC-SVG-20010904/DTD/svg10.dtd">
<svg version="1.0" xmlns="http://www.w3.org/2000/svg"
 width="393.000000pt" height="497.000000pt" viewBox="0 0 393.000000 497.000000"
 preserveAspectRatio="xMidYMid meet">

<g transform="translate(0.000000,497.000000) scale(0.100000,-0.100000)"
fill="#000000" stroke="none">
<path d="M0 2485 l0 -2485 1965 0 1965 0 0 2485 0 2485 -1965 0 -1965 0 0
-2485z m2019 1932 c12 -21 56 -98 98 -170 91 -157 187 -325 221 -387 14 -25
33 -57 43 -72 11 -14 19 -29 19 -33 0 -3 16 -31 35 -61 19 -30 35 -56 35 -58
0 -3 36 -66 138 -241 19 -33 46 -80 59 -105 14 -25 28 -49 33 -55 4 -5 19 -30
32 -55 58 -103 217 -378 241 -417 15 -24 27 -45 27 -47 0 -2 27 -50 60 -106
33 -56 60 -103 60 -106 0 -2 16 -28 35 -58 19 -30 35 -58 35 -61 0 -3 16 -31
35 -61 19 -30 35 -56 35 -58 0 -3 27 -50 60 -106 33 -56 60 -104 60 -106 0 -2
11 -23 25 -45 14 -22 60 -99 102 -172 256 -445 302 -525 319 -554 l19 -33
-126 -127 c-69 -71 -185 -188 -258 -262 -92 -94 -136 -132 -149 -128 -9 2
-125 79 -257 171 -132 91 -247 171 -255 176 -19 13 -428 295 -455 314 -11 8
-42 30 -69 48 -27 19 -51 39 -53 45 -5 13 92 21 390 29 125 4 227 9 227 11 0
9 -42 81 -385 668 -197 336 -387 661 -422 723 -36 62 -68 114 -72 116 -4 3
-18 -16 -31 -42 -14 -26 -62 -112 -108 -192 -46 -80 -94 -163 -107 -185 -12
-22 -93 -164 -180 -315 -86 -151 -167 -293 -180 -315 -55 -98 -220 -383 -241
-416 -13 -20 -20 -40 -17 -43 4 -3 145 -6 315 -6 334 0 344 -2 272 -51 -72
-49 -528 -374 -538 -384 -25 -24 -525 -375 -533 -375 -6 0 -36 28 -68 63 -87
93 -236 249 -348 365 -99 101 -100 103 -86 130 16 31 125 220 174 302 18 30
42 71 53 90 11 19 36 64 57 100 21 36 46 81 57 100 111 193 543 938 589 1013
16 27 29 50 29 52 0 3 18 34 40 70 22 36 40 68 40 71 0 3 8 18 19 32 10 15 29
47 43 72 58 103 117 206 224 388 63 107 114 196 114 198 0 3 16 30 35 60 19
30 35 57 35 60 0 3 16 30 35 60 19 30 35 57 35 59 0 3 11 22 23 43 13 20 35
57 49 82 27 49 107 186 171 293 44 75 47 75 86 4z"/>
</g>
</svg>
