<svg width="289" height="36" xmlns="http://www.w3.org/2000/svg">
 <defs>
  <filter height="200%" width="200%" y="-50%" x="-50%" id="svg_6_blur">
   <feGaussianBlur stdDeviation="0" in="SourceGraphic"/>
  </filter>
 </defs>
 <g>
  <title>background</title>
  <rect fill="none" id="canvas_background" height="514" width="514" y="-1" x="-1"/>
 </g>
 <g>
  <title>Layer 1</title>
  <path style="--darkreader-inline-fill:#181a1b;" id="svg_1" fill="white" d="m73.018,24c-6.4017,0 -7.7868,-6.7826 -9.0714,-9.4133l-5.9466,-14.5867l231,0l0,14.3783c0,6.5901 -4.292,8.9865 -10.729,8.9865c-59.469,0 -196.0957,0.6352 -205.253,0.6352z"/>
  <path style="--darkreader-inline-fill:#cc3700;" id="svg_3" fill="#FF4500" d="m57.1476,27.2247c2.094,4.4298 5.1059,8.7753 7.8524,8.7753l-52.5,0c-7.89286,0 -12.5,-5 -12.5,-14.5l0,-21.5l46.2416,0c2.7629,7.22917 8.8121,22.7949 10.906,27.2247z"/>
  <text style="--darkreader-inline-fill:#e8e6e3;" font-weight="bold" xml:space="preserve" text-anchor="start" font-family="'Courier New', Courier, monospace" font-size="16" id="svg_5" y="16.458082" x="90.00898" fill-opacity="null" stroke-opacity="null" stroke-width="0" stroke="null" fill="#000000">Zoosy's portfolio</text>
  <path style="--darkreader-inline-fill:#000000;" filter="url(#svg_6_blur)" stroke="null" id="svg_6" d="m35.315344,18.000989c-1.05902,-1.394173 -2.354656,-2.522901 -3.654271,-3.31249c-1.516446,0.809333 -3.363396,1.302158 -5.37693,1.302158c-2.017488,0 -3.867094,-0.493785 -5.380867,-1.302158c-1.299612,0.789589 -2.596571,1.918318 -3.658191,3.31249c-2.464389,3.236869 -2.735412,6.557071 -0.60687,7.417956c0.953251,0.387801 1.952721,0.098756 2.985286,-0.626283c-0.181126,0.735144 -0.2869,1.531945 -0.2869,2.365377c0,3.702723 1.973891,6.702083 4.406496,6.702083c1.466213,0 2.192032,-1.092134 2.541046,-2.764275c0.347726,1.672141 1.073539,2.764275 2.534438,2.764275c2.436603,0 4.410512,-2.99936 4.410512,-6.702083c0,-0.833433 -0.105809,-1.630232 -0.290872,-2.365377c1.035186,0.725039 2.033341,1.014084 2.989238,0.626283c2.127232,-0.860884 1.852207,-4.181087 -0.612114,-7.417956l-0.000002,0zm-9.033803,-3.273472c4.093145,0 7.4129,-2.419329 7.4129,-5.403754s-3.319755,-5.40376 -7.4129,-5.40376c-4.094538,0 -7.416914,2.419811 -7.416914,5.40376s3.322377,5.403754 7.416914,5.403754z" fill-opacity="null" stroke-opacity="null" stroke-width="null" fill="black"/>
  <path id="svg_7" d="m34.90251,25.138699c-0.034797,-0.062859 -0.077369,-0.113749 -0.120071,-0.149349c-0.049827,0.03649 -0.110514,0.05871 -0.176674,0.05871c-0.06629,0 -0.127064,-0.022263 -0.176803,-0.05871c-0.042702,0.0356 -0.085318,0.086491 -0.1202,0.149349c-0.080974,0.14594 -0.08988,0.295636 -0.01994,0.334451c0.031322,0.017485 0.064162,0.004453 0.09809,-0.028237c-0.005951,0.033145 -0.009427,0.06907 -0.009427,0.106647c0,0.166943 0.064858,0.302175 0.144788,0.302175c0.048176,0 0.072025,-0.049241 0.083493,-0.124632c0.011425,0.075391 0.035274,0.124632 0.083276,0.124632c0.080061,0 0.14492,-0.135231 0.14492,-0.302175c0,-0.037577 -0.003477,-0.073502 -0.009557,-0.106647c0.034014,0.03269 0.066811,0.045722 0.09822,0.028237c0.069896,-0.038814 0.060859,-0.188511 -0.020113,-0.334451l0,0zm-0.296831,-0.14759c0.134492,0 0.243571,-0.109079 0.243571,-0.243637s-0.10908,-0.243638 -0.243571,-0.243638c-0.134537,0 -0.243703,0.109101 -0.243703,0.243638s0.109166,0.243637 0.243703,0.243637z" fill-opacity="null" stroke-opacity="null" stroke-width="null" stroke="null" fill="black"/>
  <path id="svg_8" d="m96.608213,23.649179c-0.014311,-0.062859 -0.03182,-0.113749 -0.049382,-0.149349c-0.020492,0.03649 -0.045451,0.05871 -0.072661,0.05871c-0.027263,0 -0.052258,-0.022263 -0.072714,-0.05871c-0.017562,0.0356 -0.035089,0.086491 -0.049435,0.149349c-0.033302,0.14594 -0.036965,0.295636 -0.008201,0.334451c0.012882,0.017485 0.026388,0.004453 0.040342,-0.028237c-0.002448,0.033145 -0.003877,0.06907 -0.003877,0.106647c0,0.166943 0.026674,0.302175 0.059547,0.302175c0.019814,0 0.029622,-0.049241 0.034338,-0.124632c0.004699,0.075391 0.014507,0.124632 0.034249,0.124632c0.032927,0 0.059601,-0.135231 0.059601,-0.302175c0,-0.037577 -0.00143,-0.073502 -0.003931,-0.106647c0.013989,0.03269 0.027477,0.045722 0.040395,0.028237c0.028746,-0.038814 0.02503,-0.188511 -0.008272,-0.334451l0,0zm-0.122078,-0.14759c0.055313,0 0.100174,-0.109079 0.100174,-0.243637s-0.044861,-0.243638 -0.100174,-0.243638c-0.055331,0 -0.100228,0.109101 -0.100228,0.243638s0.044897,0.243637 0.100228,0.243637z" fill-opacity="null" stroke-opacity="null" stroke-width="null" stroke="null" fill="#FF4500"/>
  <path id="svg_9" d="m73.034243,24.542891c-0.034797,-0.062859 -0.077369,-0.113749 -0.120071,-0.149349c-0.049827,0.03649 -0.110514,0.05871 -0.176674,0.05871c-0.06629,0 -0.127064,-0.022263 -0.176803,-0.05871c-0.042702,0.0356 -0.085318,0.086491 -0.1202,0.149349c-0.080974,0.14594 -0.08988,0.295636 -0.01994,0.334451c0.031322,0.017485 0.064162,0.004453 0.09809,-0.028237c-0.005951,0.033145 -0.009427,0.06907 -0.009427,0.106647c0,0.166943 0.064858,0.302175 0.144788,0.302175c0.048176,0 0.072025,-0.049241 0.083493,-0.124632c0.011425,0.075391 0.035274,0.124632 0.083276,0.124632c0.080061,0 0.14492,-0.135231 0.14492,-0.302175c0,-0.037577 -0.003477,-0.073502 -0.009557,-0.106647c0.034014,0.03269 0.066811,0.045722 0.09822,0.028237c0.069896,-0.038814 0.060859,-0.188511 -0.020113,-0.334451l0,0zm-0.296831,-0.14759c0.134492,0 0.243571,-0.109079 0.243571,-0.243637s-0.10908,-0.243638 -0.243571,-0.243638c-0.134537,0 -0.243703,0.109101 -0.243703,0.243638s0.109166,0.243637 0.243703,0.243637z" fill-opacity="null" stroke-opacity="null" stroke-width="null" stroke="null" fill="#FF4500"/>
  <path id="svg_10" d="m-15.145391,-4.353815c-0.034797,-0.062859 -0.077369,-0.113749 -0.120071,-0.149349c-0.049827,0.03649 -0.110514,0.05871 -0.176674,0.05871c-0.06629,0 -0.127064,-0.022263 -0.176803,-0.05871c-0.042702,0.0356 -0.085318,0.086491 -0.1202,0.149349c-0.080974,0.14594 -0.08988,0.295636 -0.01994,0.334451c0.031322,0.017485 0.064162,0.004453 0.09809,-0.028237c-0.005951,0.033145 -0.009427,0.06907 -0.009427,0.106647c0,0.166943 0.064858,0.302175 0.144788,0.302175c0.048176,0 0.072025,-0.049241 0.083493,-0.124632c0.011425,0.075391 0.035274,0.124632 0.083276,0.124632c0.080061,0 0.14492,-0.135231 0.14492,-0.302175c0,-0.037577 -0.003477,-0.073502 -0.009557,-0.106647c0.034014,0.03269 0.066811,0.045722 0.09822,0.028237c0.069896,-0.038814 0.060859,-0.188511 -0.020113,-0.334451l0,0zm-0.296831,-0.14759c0.134492,0 0.243571,-0.109079 0.243571,-0.243637s-0.10908,-0.243638 -0.243571,-0.243638c-0.134537,0 -0.243703,0.109101 -0.243703,0.243638s0.109166,0.243637 0.243703,0.243637z" fill-opacity="null" stroke-opacity="null" stroke-width="null" stroke="null" fill="#FF4500"/>
  <path id="svg_11" d="m70.651016,20.372233c-0.034797,-0.062859 -0.077369,-0.113749 -0.120071,-0.149349c-0.049827,0.03649 -0.110514,0.05871 -0.176674,0.05871c-0.06629,0 -0.127064,-0.022263 -0.176803,-0.05871c-0.042702,0.0356 -0.085318,0.086491 -0.1202,0.149349c-0.080974,0.14594 -0.08988,0.295636 -0.01994,0.334451c0.031322,0.017485 0.064162,0.004453 0.09809,-0.028237c-0.005951,0.033145 -0.009427,0.06907 -0.009427,0.106647c0,0.166943 0.064858,0.302175 0.144788,0.302175c0.048176,0 0.072025,-0.049241 0.083493,-0.124632c0.011425,0.075391 0.035274,0.124632 0.083276,0.124632c0.080061,0 0.14492,-0.135231 0.14492,-0.302175c0,-0.037577 -0.003477,-0.073502 -0.009557,-0.106647c0.034014,0.03269 0.066811,0.045722 0.09822,0.028237c0.069896,-0.038814 0.060859,-0.188511 -0.020113,-0.334451l0,0zm-0.296831,-0.14759c0.134492,0 0.243571,-0.109079 0.243571,-0.243637s-0.10908,-0.243638 -0.243571,-0.243638c-0.134537,0 -0.243703,0.109101 -0.243703,0.243638s0.109166,0.243637 0.243703,0.243637z" fill-opacity="null" stroke-opacity="null" stroke-width="null" stroke="null" fill="#FF4500"/>
  <path id="svg_12" d="m106.101611,16.797381c-0.034797,-0.062859 -0.077369,-0.113749 -0.120071,-0.149349c-0.049827,0.03649 -0.110514,0.05871 -0.176674,0.05871c-0.06629,0 -0.127064,-0.022263 -0.176803,-0.05871c-0.042702,0.0356 -0.085318,0.086491 -0.1202,0.149349c-0.080974,0.14594 -0.08988,0.295636 -0.01994,0.334451c0.031322,0.017485 0.064162,0.004453 0.09809,-0.028237c-0.005951,0.033145 -0.009427,0.06907 -0.009427,0.106647c0,0.166943 0.064858,0.302175 0.144788,0.302175c0.048176,0 0.072025,-0.049241 0.083493,-0.124632c0.011425,0.075391 0.035274,0.124632 0.083276,0.124632c0.080061,0 0.14492,-0.135231 0.14492,-0.302175c0,-0.037577 -0.003477,-0.073502 -0.009557,-0.106647c0.034014,0.03269 0.066811,0.045722 0.09822,0.028237c0.069896,-0.038814 0.060859,-0.188511 -0.020113,-0.334451l0,0zm-0.296831,-0.14759c0.134492,0 0.243571,-0.109079 0.243571,-0.243637s-0.10908,-0.243638 -0.243571,-0.243638c-0.134537,0 -0.243703,0.109101 -0.243703,0.243638s0.109166,0.243637 0.243703,0.243637z" fill-opacity="null" stroke-opacity="null" stroke-width="null" stroke="null" fill="#FF4500"/>
  <path id="svg_13" d="m26.561194,15.009957c-0.034797,-0.062859 -0.077369,-0.113749 -0.120071,-0.149349c-0.049827,0.03649 -0.110514,0.05871 -0.176674,0.05871c-0.06629,0 -0.127064,-0.022263 -0.176803,-0.05871c-0.042702,0.0356 -0.085318,0.086491 -0.1202,0.149349c-0.080974,0.14594 -0.08988,0.295636 -0.01994,0.334451c0.031322,0.017485 0.064162,0.004453 0.09809,-0.028237c-0.005951,0.033145 -0.009427,0.06907 -0.009427,0.106647c0,0.166943 0.064858,0.302175 0.144788,0.302175c0.048176,0 0.072025,-0.049241 0.083493,-0.124632c0.011425,0.075391 0.035274,0.124632 0.083276,0.124632c0.080061,0 0.14492,-0.135231 0.14492,-0.302175c0,-0.037577 -0.003477,-0.073502 -0.009557,-0.106647c0.034014,0.03269 0.066811,0.045722 0.09822,0.028237c0.069896,-0.038814 0.060859,-0.188511 -0.020113,-0.334451l0,0zm-0.296831,-0.14759c0.134492,0 0.243571,-0.109079 0.243571,-0.243637s-0.10908,-0.243638 -0.243571,-0.243638c-0.134537,0 -0.243703,0.109101 -0.243703,0.243638s0.109166,0.243637 0.243703,0.243637z" fill-opacity="null" stroke-opacity="null" stroke-width="null" stroke="null" fill="#FF4500"/>
 </g>
</svg>