<?xml version="1.0" standalone="no"?>
<!DOCTYPE svg PUBLIC "-//W3C//DTD SVG 20010904//EN"
 "http://www.w3.org/TR/2001/REC-SVG-20010904/DTD/svg10.dtd">
<svg version="1.0" xmlns="http://www.w3.org/2000/svg"
 width="70.000000pt" height="44.000000pt" viewBox="0 0 70.000000 44.000000"
 preserveAspectRatio="xMidYMid meet">

<g transform="translate(0.000000,44.000000) scale(0.100000,-0.100000)"
fill="#000000" stroke="none">
<path d="M0 220 l0 -220 350 0 350 0 0 220 0 220 -350 0 -350 0 0 -220z m274
63 c7 -22 6 -23 -68 -23 -42 0 -76 2 -76 5 0 3 17 42 37 86 l37 81 32 -63 c17
-35 35 -74 38 -86z m414 138 c-1 -4 -19 -43 -38 -84 l-35 -76 -121 -1 -120 0
-35 77 c-19 42 -35 80 -37 85 -2 4 85 8 193 8 108 0 195 -4 193 -9z m-328
-318 c19 -42 37 -80 38 -85 2 -4 -85 -8 -193 -8 -108 0 -195 4 -193 9 2 4 19
43 38 84 l35 76 120 1 120 0 35 -77z m207 65 c-2 -7 -19 -46 -38 -87 l-33 -73
-37 73 c-21 41 -38 80 -39 87 0 8 22 12 76 12 57 0 75 -3 71 -12z"/>
</g>
</svg>
