<svg width="304.99999999999994" height="34" xmlns="http://www.w3.org/2000/svg">
 <defs>
  <clipPath id="clip0">
   <rect style="--darkreader-inline-fill:#e8e6e3;" width="22" height="22" fill="white" y="7" x="16" id="svg_1"/>
  </clipPath>
 </defs>
 <g>
  <title>background</title>
  <rect x="-1" y="-1" width="100.387085" height="12.967741" id="canvas_background" fill="none"/>
 </g>
 <g>
  <title>Layer 1</title>
  <path d="m73.018,24c-6.4017,0 -7.7868,-6.7826 -9.0714,-9.4133l-5.9466,-14.5867l231,0l0,14.3783c0,6.5901 -4.292,8.9865 -10.729,8.9865c-59.469,0 -196.0957,0.6352 -205.253,0.6352z" fill="white" id="svg_2"/>
  <path style="--darkreader-inline-fill:#cc3700;" d="m57.1476,27.2247c2.094,4.4298 5.1059,8.7753 7.8524,8.7753l-52.5,0c-7.89286,0 -12.5,-5 -12.5,-14.5l0,-21.5l46.2416,0c2.7629,7.22917 8.8121,22.7949 10.906,27.2247z" fill="#FF4500" id="svg_4"/>
  <text fill="#000000" stroke-width="0" stroke-opacity="null" fill-opacity="null" x="100.306458" y="10.209682" id="svg_7" font-size="24" font-family="Helvetica, Arial, sans-serif" text-anchor="start" xml:space="preserve" transform="matrix(1,0,0,0.33016863465309143,0,10.31958947237581) " stroke="null"/>
  <text fill="#000000" stroke-width="0" x="75.914767" y="15.331885" id="svg_8" font-size="23" font-family="Helvetica, Arial, sans-serif" text-anchor="start" xml:space="preserve" transform="matrix(0.5944907069206239,0,0,0.48282158796649804,30.960996398141102,8.216812935334566) " font-weight="bold">SERVER</text>
  <line fill="none" x1="90.95162" y1="8.919359" x2="142.241938" y2="19.56452" id="svg_11" stroke-linejoin="null" stroke-linecap="null" stroke="null"/>
  <path style="--darkreader-inline-fill:#cc3700;" id="svg_3" d="m15.279327,20.013406c2.688793,0 5.216851,0.904837 7.115953,2.546309c1.903469,1.642223 2.949985,3.830351 2.949985,6.158898l4.145003,0c0,-6.764125 -6.376055,-12.265984 -14.211815,-12.265984l0,3.560777l0.000874,0zm0.005241,-6.313584c9.585484,0 17.381934,6.739345 17.381934,15.022545l4.143256,0c0,-10.246808 -9.656242,-18.584073 -21.526064,-18.584073l0,3.561528l0.000874,0zm5.7305,12.533305c0,1.362887 -1.284995,2.468215 -2.869618,2.468215s-2.869618,-1.105328 -2.869618,-2.468215c0,-1.361385 1.284995,-2.466713 2.869618,-2.466713s2.869618,1.104577 2.869618,2.466713z" fill-opacity="null" stroke-opacity="null" stroke-width="null" stroke="null" fill="#FF4500"/>
  <path id="svg_5" d="m20.85255,19.302869c0.01539,0 0.02986,0.006025 0.04073,0.016955c0.010895,0.010935 0.016885,0.025505 0.016885,0.04101l0.023725,0c0,-0.04504 -0.036495,-0.081675 -0.081345,-0.081675l0,0.02371l0.000005,0zm0.00003,-0.04204c0.054865,0 0.09949,0.044875 0.09949,0.10003l0.023715,0c0,-0.06823 -0.05527,-0.123745 -0.12321,-0.123745l0,0.023715l0.000005,0zm0.0328,0.083455c0,0.009075 -0.007355,0.016435 -0.016425,0.016435s-0.016425,-0.00736 -0.016425,-0.016435c0,-0.009065 0.007355,-0.016425 0.016425,-0.016425s0.016425,0.007355 0.016425,0.016425z" fill-opacity="null" stroke-opacity="null" stroke-width="null" stroke="null" fill="#FF4500"/>
  <path style="--darkreader-inline-fill:#000000;" stroke="null" id="svg_9" d="m15.263292,20.202434c2.836124,0 5.502707,1.005374 7.505869,2.829232c2.007769,1.824692 3.111628,4.255945 3.111628,6.843219l4.372128,0c0,-7.515694 -6.725429,-13.62887 -14.990546,-13.62887l0,3.956419l0.000921,0zm0.005529,-7.015093c10.110718,0 18.334372,7.488161 18.334372,16.691715l4.370285,0c0,-11.385342 -10.185352,-20.648968 -22.705578,-20.648968l0,3.957253l0.000921,0zm6.044501,13.925893c0,1.514319 -1.355406,2.742461 -3.026858,2.742461s-3.026858,-1.228142 -3.026858,-2.742461c0,-1.51265 1.355406,-2.740792 3.026858,-2.740792s3.026858,1.227307 3.026858,2.740792z" stroke-opacity="null" stroke-width="null" fill="#000000"/>
 </g>
</svg>