<svg width="305" height="34" xmlns="http://www.w3.org/2000/svg">
 <defs>
  <clipPath id="clip0">
   <rect style="--darkreader-inline-fill:#e8e6e3;" id="svg_1" x="16" y="7" fill="white" height="22" width="22"/>
  </clipPath>
 </defs>
 <g>
  <title>background</title>
  <rect fill="none" id="canvas_background" height="36" width="307" y="-1" x="-1"/>
 </g>
 <g>
  <title>Layer 1</title>
  <path style="--darkreader-inline-fill:#181a1b;" id="svg_2" fill="white" d="m73.018,24c-6.4017,0 -7.7868,-6.7826 -9.0714,-9.4133l-5.9466,-14.5867l231,0l0,14.3783c0,6.5901 -4.292,8.9865 -10.729,8.9865c-59.469,0 -196.0957,0.6352 -205.253,0.6352z"/>
  <path id="svg_4" fill="#FF4500" d="m57.1476,27.2247c2.094,4.4298 5.1059,8.7753 7.8524,8.7753l-52.5,0c-7.89286,0 -12.5,-5 -12.5,-14.5l0,-21.5l46.2416,0c2.7629,7.22917 8.8121,22.7949 10.906,27.2247z"/>
  <g id="svg_5" clip-path="url(#clip0)">
   <path id="svg_6" fill="black" d="m16.93,19.6621l1.4418,0.009c0.2156,1.1094 0.6423,2.1874 1.2891,3.1666l-1.0241,1.0151c-0.3683,0.3638 -0.3683,0.9522 -0.009,1.3205l1.105,1.1184c0.3638,0.3683 0.9522,0.3683 1.3205,0.009l1.0241,-1.0151c0.9702,0.6558 2.0437,1.1004 3.1531,1.325l-0.009,1.4418c-0.0045,0.5165 0.4132,0.9343 0.9298,0.9388l1.572,0.0089c0.5166,0.0045 0.9343,-0.4132 0.9388,-0.9297l0.009,-1.4418c1.1094,-0.2156 2.1874,-0.6423 3.1666,-1.2891l1.0151,1.0241c0.3638,0.3683 0.9522,0.3683 1.3205,0.0089l1.1184,-1.1049c0.3683,-0.3638 0.3683,-0.9522 0.009,-1.3205l-1.0151,-1.0241c0.6558,-0.9702 1.1004,-2.0437 1.325,-3.1531l1.4418,0.009c0.5165,0.0045 0.9343,-0.4133 0.9388,-0.9298l0.0089,-1.5721c0.0045,-0.5165 -0.4132,-0.9342 -0.9297,-0.9387l-1.4418,-0.009c-0.2156,-1.1094 -0.6423,-2.1874 -1.2891,-3.1666l1.0241,-1.0151c0.3683,-0.3638 0.3683,-0.9522 0.0089,-1.3205l-1.1049,-1.11842c-0.3638,-0.36832 -0.9522,-0.36832 -1.3205,-0.00899l-1.0241,1.01511c-0.9702,-0.6558 -2.0437,-1.10045 -3.1531,-1.32503l0.009,-1.44181c0.0045,-0.51653 -0.4133,-0.93425 -0.9298,-0.93874l-1.5721,-0.00899c-0.5165,-0.00449 -0.9342,0.41323 -0.9387,0.92977l-0.0135,1.4418c-1.1139,0.2156 -2.1919,0.6423 -3.1666,1.2891l-1.0151,-1.02409c-0.3638,-0.36831 -0.9522,-0.36831 -1.3205,-0.00898l-1.1139,1.10497c-0.3683,0.3638 -0.3683,0.9522 -0.009,1.3205l1.0151,1.0241c-0.6558,0.9702 -1.1004,2.0437 -1.325,3.1531l-1.4418,-0.009c-0.5166,-0.0045 -0.9343,0.4132 -0.9388,0.9298l-0.009,1.572c-0.0045,0.5121 0.4133,0.9343 0.9298,0.9388zm7.1237,-4.6398c1.6439,-1.626 4.2895,-1.6125 5.9154,0.0314c1.626,1.6439 1.6125,4.2895 -0.0314,5.9154c-1.6439,1.626 -4.2895,1.6125 -5.9154,-0.0314c-1.626,-1.6439 -1.6125,-4.2895 0.0314,-5.9154z"/>
  </g>
  <text style="--darkreader-inline-fill:#e8e6e3;" stroke="null" transform="matrix(1,0,0,0.33016863465309143,0,10.31958947237581) " xml:space="preserve" text-anchor="start" font-family="Helvetica, Arial, sans-serif" font-size="24" id="svg_7" y="10.209682" x="100.306458" fill-opacity="null" stroke-opacity="null" stroke-width="0" fill="#000000"/>
  <text style="--darkreader-inline-fill:#e8e6e3;" font-weight="bold" transform="matrix(0.5944907069206239,0,0,0.48282158796649804,30.960996398141102,8.216812935334566) " xml:space="preserve" text-anchor="start" font-family="Helvetica, Arial, sans-serif" font-size="19" id="svg_8" y="10.655076" x="76.457383" stroke-width="0" fill="#000000">SERVER</text>
  <line style="--darkreader-inline-fill:none;" stroke="null" stroke-linecap="null" stroke-linejoin="null" id="svg_11" y2="19.56452" x2="142.241938" y1="8.919359" x1="90.95162" fill="none"/>
 </g>
</svg>