<svg width="38" height="37" viewBox="0 0 38 37" fill="none" xmlns="http://www.w3.org/2000/svg">
<path d="M8.7442 0.5H29.5116C33.6538 0.5 37.0116 3.85786 37.0116 8V28.7674C37.0116 32.9096 33.6538 36.2674 29.5116 36.2674H8.7442C4.60206 36.2674 1.2442 32.9096 1.2442 28.7674V8C1.2442 3.85786 4.60207 0.5 8.7442 0.5Z" stroke="#FF4500"/>
<path d="M29.4228 22.493C29.4205 23.2724 29.1099 24.0193 28.5588 24.5704C28.0076 25.1215 27.2608 25.4321 26.4814 25.4344H11.7744C10.995 25.4321 10.2482 25.1215 9.69707 24.5704C9.14594 24.0193 8.83529 23.2724 8.83301 22.493V14.2744C8.83529 13.495 9.14594 12.7482 9.69707 12.1971C10.2482 11.6459 10.995 11.3353 11.7744 11.333H26.4814C27.2608 11.3353 28.0076 11.6459 28.5588 12.1971C29.1099 12.7482 29.4205 13.495 29.4228 14.2744V22.493ZM16.9997 20.9012L22.5667 18.0204L16.9997 15.1395V20.9012Z" fill="white"/>
</svg>
